<svg width="121" height="30" viewBox="0 0 121 30" fill="none" xmlns="http://www.w3.org/2000/svg">
<g clip-path="url(#clip0_2617_1516)">
<path fill-rule="evenodd" clip-rule="evenodd" d="M11.9005 13.375C11.9013 13.3743 11.9013 13.373 11.9005 13.3723L3.76988 5.24162C3.61374 5.08547 3.36055 5.08547 3.2044 5.24162L1.6662 6.77983C1.51004 6.93598 1.51004 7.18917 1.6662 7.34532L7.0166 12.6957C7.2685 12.9476 7.09009 13.3783 6.73386 13.3783H0.399868C0.179028 13.3783 0 13.5574 0 13.7782V15.9535C0 16.1744 0.179027 16.3534 0.399868 16.3534H6.73512C7.09135 16.3534 7.26977 16.7841 7.01787 17.036L1.66607 22.3878C1.50992 22.544 1.50992 22.7972 1.66607 22.9533L3.20427 24.4915C3.36042 24.6477 3.61361 24.6477 3.76976 24.4915L11.9 16.3613C11.901 16.3603 11.901 16.3587 11.9 16.3577L11.898 16.3557C11.8971 16.3548 11.8977 16.3534 11.8989 16.3534C11.8997 16.3534 11.9003 16.3528 11.9003 16.3521V13.3792C11.9003 13.3787 11.8999 13.3783 11.8994 13.3783C11.8986 13.3783 11.8981 13.3774 11.8987 13.3768L11.9005 13.375Z" fill="white"/>
<path fill-rule="evenodd" clip-rule="evenodd" d="M17.8512 16.3678C17.8504 16.3685 17.8504 16.3698 17.8512 16.3705L25.9818 24.5012C26.138 24.6573 26.3912 24.6573 26.5474 24.5012L28.0856 22.9629C28.2417 22.8068 28.2417 22.5536 28.0856 22.3975L22.7351 17.0471C22.4832 16.7952 22.6616 16.3644 23.0178 16.3644H29.3517C29.5727 16.3644 29.7517 16.1854 29.7517 15.9646V13.7892C29.7517 13.5684 29.5727 13.3894 29.3517 13.3894H23.0164C22.6602 13.3894 22.4818 12.9587 22.7337 12.7068L28.0856 7.35484C28.2417 7.19869 28.2417 6.9455 28.0856 6.78935L26.5474 5.25114C26.3912 5.095 26.138 5.095 25.9818 5.25114L17.8517 13.3813C17.8507 13.3823 17.8507 13.384 17.8517 13.385L17.8538 13.387C17.8546 13.3879 17.854 13.3894 17.8528 13.3894C17.852 13.3894 17.8514 13.39 17.8514 13.3908V16.3635C17.8514 16.364 17.8518 16.3644 17.8523 16.3644C17.8531 16.3644 17.8535 16.3654 17.8529 16.366L17.8512 16.3678Z" fill="white"/>
<path fill-rule="evenodd" clip-rule="evenodd" d="M16.3676 11.9004C16.3683 11.9012 16.3695 11.9012 16.3702 11.9004L24.5009 3.76976C24.6571 3.61361 24.6571 3.36042 24.5009 3.20427L22.9627 1.66608C22.8065 1.50992 22.5534 1.50992 22.3972 1.66608L17.0469 7.01636C16.795 7.26826 16.3643 7.08984 16.3643 6.73361V0.399868C16.3643 0.179027 16.1853 1.0474e-07 15.9644 9.50851e-08L13.7891 0C13.5683 -9.65455e-09 13.3892 0.179027 13.3892 0.399868V6.7355C13.3892 7.09173 12.9585 7.27014 12.7066 7.01824L7.35459 1.6662C7.19844 1.51004 6.94525 1.51004 6.7891 1.6662L5.25092 3.2044C5.09475 3.36055 5.09475 3.61374 5.25092 3.76989L13.3811 11.9C13.3821 11.9011 13.3837 11.9011 13.3848 11.9L13.3869 11.8979C13.3878 11.897 13.3892 11.8977 13.3892 11.8989C13.3892 11.8996 13.3899 11.9003 13.3906 11.9003H16.3634C16.3639 11.9003 16.3643 11.8999 16.3643 11.8994C16.3643 11.8986 16.3653 11.8982 16.3658 11.8987L16.3676 11.9004Z" fill="white"/>
<path fill-rule="evenodd" clip-rule="evenodd" d="M13.3842 17.8519C13.3835 17.8511 13.3823 17.8511 13.3816 17.8519L5.2509 25.9826C5.09475 26.1388 5.09475 26.3919 5.2509 26.5481L6.78908 28.0863C6.94526 28.2423 7.19842 28.2423 7.3546 28.0863L12.7049 22.736C12.9568 22.4841 13.3875 22.6625 13.3875 23.0187V29.3525C13.3875 29.5732 13.5665 29.7522 13.7874 29.7522H15.9627C16.1835 29.7522 16.3626 29.5732 16.3626 29.3525V23.0168C16.3626 22.6606 16.7933 22.4822 17.0452 22.7341L22.3972 28.0861C22.5534 28.2423 22.8066 28.2423 22.9627 28.0861L24.5009 26.5479C24.6571 26.3917 24.6571 26.1385 24.5009 25.9823L16.3707 17.8523C16.3697 17.8513 16.3681 17.8513 16.367 17.8523L16.3649 17.8544C16.364 17.8553 16.3626 17.8547 16.3626 17.8534C16.3626 17.8527 16.3619 17.8521 16.3612 17.8521H13.3884C13.3879 17.8521 13.3875 17.8524 13.3875 17.8529C13.3875 17.8537 13.3865 17.8542 13.386 17.8536L13.3842 17.8519Z" fill="white"/>
<path d="M32.9756 24.7485H46.1347V21.6556H36.6309V16.51H44.8412V13.4171H36.6309V8.72139H46.1347V5.62842H32.9756V24.7485Z" fill="white"/>
<path d="M52.2673 25.086C54.4605 25.086 55.782 24.1018 56.5974 22.5272H56.71V24.7485H62.2771V22.0211H59.859V14.9916C59.859 11.7862 57.7221 10.071 54.2916 10.071C50.8615 10.071 48.3308 11.7019 48.2183 14.8229H51.733C51.733 13.5014 52.7453 12.7985 54.1511 12.7985C55.5288 12.7985 56.4006 13.4452 56.4006 14.9354V15.8633L52.4359 16.2007C49.4274 16.4538 47.7402 18.3658 47.7402 20.6714C47.7402 21.9649 48.2183 23.0615 49.0337 23.8488C49.8492 24.636 50.9738 25.086 52.2673 25.086ZM53.5045 22.3585C52.2673 22.3585 51.3955 21.9086 51.3955 21.0651V19.8279C51.3955 19.2655 51.6206 18.9563 52.183 18.9L56.4006 18.5345V19.0969C56.4006 20.8964 55.304 22.3585 53.5045 22.3585Z" fill="white"/>
<path d="M63.373 24.7485H66.8878V13.164H71.3865V10.4084H63.373V24.7485Z" fill="white"/>
<path d="M81.9698 24.7485H85.4845V15.3572C85.4845 12.0674 83.9942 10.071 80.7886 10.071C78.7643 10.071 77.4145 10.9708 76.543 12.4892V10.4085H73.0283V24.7485H76.543V16.4538C76.543 14.3731 77.6957 12.939 79.636 12.939C81.3229 12.939 81.9698 13.9232 81.9698 15.6102V24.7485Z" fill="white"/>
<path d="M104.13 15.1884C104.13 8.66502 101.009 5.20654 95.6106 5.20654C90.2118 5.20654 87.0908 8.66502 87.0908 15.1884C87.0908 21.7117 90.2118 25.1702 95.6106 25.1702C101.009 25.1702 104.13 21.7117 104.13 15.1884ZM95.6106 22.0772C93.0799 22.0772 91.0273 20.6713 91.0273 18.1407V12.236C91.0273 9.7054 93.0799 8.29949 95.6106 8.29949C98.141 8.29949 100.194 9.7054 100.194 12.236V18.1407C100.194 20.6713 98.141 22.0772 95.6106 22.0772Z" fill="white"/>
<path d="M112.921 8.21515C114.664 8.21515 116.239 8.83374 116.464 10.9707H120.119C119.725 6.97796 116.914 5.20654 112.977 5.20654C108.703 5.20654 106.004 7.39974 106.004 10.4927C106.004 13.3045 107.522 15.2165 110.643 16.0319L114.383 17.016C116.098 17.4659 116.942 18.2251 116.942 19.5747C116.942 21.2337 115.283 22.1616 113.146 22.1616C110.896 22.1616 109.406 21.2899 109.097 19.0405H105.441C105.779 23.4831 108.956 25.1702 113.202 25.1702C117.588 25.1702 120.597 23.0614 120.597 19.5466C120.597 16.3974 118.91 14.7666 115.648 13.9231L112.387 13.0795C110.559 12.6015 109.659 11.9267 109.659 10.4646C109.659 9.08681 110.896 8.21515 112.921 8.21515Z" fill="white"/>
</g>
<defs>
<clipPath id="clip0_2617_1516">
<rect width="120.744" height="30" fill="white"/>
</clipPath>
</defs>
</svg>
